<svg width="200" height="200" xmlns="http://www.w3.org/2000/svg">
  <defs>
    <pattern id="qrPattern" patternUnits="userSpaceOnUse" width="10" height="10">
      <rect width="10" height="10" fill="white"/>
    </pattern>
  </defs>
  
  <!-- Background -->
  <rect width="200" height="200" fill="white"/>
  
  <!-- QR Code Pattern -->
  <g fill="black">
    <!-- Corner squares -->
    <rect x="10" y="10" width="60" height="60"/>
    <rect x="20" y="20" width="40" height="40" fill="white"/>
    <rect x="30" y="30" width="20" height="20"/>
    
    <rect x="130" y="10" width="60" height="60"/>
    <rect x="140" y="20" width="40" height="40" fill="white"/>
    <rect x="150" y="30" width="20" height="20"/>
    
    <rect x="10" y="130" width="60" height="60"/>
    <rect x="20" y="140" width="40" height="40" fill="white"/>
    <rect x="30" y="150" width="20" height="20"/>
    
    <!-- Data pattern -->
    <rect x="80" y="10" width="10" height="10"/>
    <rect x="100" y="10" width="10" height="10"/>
    <rect x="110" y="20" width="10" height="10"/>
    <rect x="90" y="30" width="10" height="10"/>
    <rect x="120" y="30" width="10" height="10"/>
    
    <rect x="10" y="80" width="10" height="10"/>
    <rect x="30" y="80" width="10" height="10"/>
    <rect x="50" y="80" width="10" height="10"/>
    <rect x="70" y="80" width="10" height="10"/>
    <rect x="90" y="80" width="10" height="10"/>
    <rect x="110" y="80" width="10" height="10"/>
    <rect x="130" y="80" width="10" height="10"/>
    <rect x="150" y="80" width="10" height="10"/>
    <rect x="170" y="80" width="10" height="10"/>
    
    <rect x="20" y="90" width="10" height="10"/>
    <rect x="40" y="90" width="10" height="10"/>
    <rect x="80" y="90" width="10" height="10"/>
    <rect x="100" y="90" width="10" height="10"/>
    <rect x="140" y="90" width="10" height="10"/>
    <rect x="160" y="90" width="10" height="10"/>
    <rect x="180" y="90" width="10" height="10"/>
    
    <rect x="10" y="100" width="10" height="10"/>
    <rect x="50" y="100" width="10" height="10"/>
    <rect x="70" y="100" width="10" height="10"/>
    <rect x="110" y="100" width="10" height="10"/>
    <rect x="130" y="100" width="10" height="10"/>
    <rect x="170" y="100" width="10" height="10"/>
    <rect x="190" y="100" width="10" height="10"/>
    
    <rect x="30" y="110" width="10" height="10"/>
    <rect x="60" y="110" width="10" height="10"/>
    <rect x="90" y="110" width="10" height="10"/>
    <rect x="120" y="110" width="10" height="10"/>
    <rect x="150" y="110" width="10" height="10"/>
    <rect x="180" y="110" width="10" height="10"/>
    
    <rect x="80" y="130" width="10" height="10"/>
    <rect x="100" y="130" width="10" height="10"/>
    <rect x="120" y="130" width="10" height="10"/>
    <rect x="140" y="130" width="10" height="10"/>
    <rect x="160" y="130" width="10" height="10"/>
    <rect x="180" y="130" width="10" height="10"/>
    
    <rect x="90" y="140" width="10" height="10"/>
    <rect x="130" y="140" width="10" height="10"/>
    <rect x="170" y="140" width="10" height="10"/>
    <rect x="190" y="140" width="10" height="10"/>
    
    <rect x="80" y="150" width="10" height="10"/>
    <rect x="110" y="150" width="10" height="10"/>
    <rect x="140" y="150" width="10" height="10"/>
    <rect x="180" y="150" width="10" height="10"/>
    
    <rect x="90" y="160" width="10" height="10"/>
    <rect x="120" y="160" width="10" height="10"/>
    <rect x="150" y="160" width="10" height="10"/>
    <rect x="190" y="160" width="10" height="10"/>
    
    <rect x="80" y="170" width="10" height="10"/>
    <rect x="100" y="170" width="10" height="10"/>
    <rect x="130" y="170" width="10" height="10"/>
    <rect x="160" y="170" width="10" height="10"/>
    <rect x="180" y="170" width="10" height="10"/>
    
    <rect x="90" y="180" width="10" height="10"/>
    <rect x="110" y="180" width="10" height="10"/>
    <rect x="140" y="180" width="10" height="10"/>
    <rect x="170" y="180" width="10" height="10"/>
    <rect x="190" y="180" width="10" height="10"/>
  </g>
</svg>